<svg xmlns="http://www.w3.org/2000/svg" viewBox="0 0 1000 600"><rect width="1000" height="600" fill="#f7f4eb"/><circle cx="970" cy="30" r="180" fill="#f2c85b" opacity=".12"/><circle cx="30" cy="560" r="180" fill="#cfe9dc" opacity=".35"/><text x="50" y="62" fill="#252820" font-family="Inter,Arial,sans-serif" font-size="24" font-weight="600">Tasks, actions and campaign state</text><rect x="170" y="130" width="180" height="230" rx="20" fill="#d9e8f3" stroke="#252820" stroke-width="3"/><rect x="188" y="180" width="144" height="83" rx="20" fill="#f7f4eb" stroke="#252820" stroke-width="3"/><path d="M188 180l72 50 72-50" fill="none" stroke="#252820" stroke-width="4" stroke-linecap="round" stroke-linejoin="round"/><text x="191" y="318" fill="#252820" font-family="Inter,Arial,sans-serif" font-size="21" font-weight="600">TASK</text><rect x="365" y="168" width="180" height="230" rx="20" fill="#efd3c5" stroke="#252820" stroke-width="3"/><rect x="383" y="218" width="144" height="83" rx="20" fill="#f7f4eb" stroke="#252820" stroke-width="3"/><path d="M383 218l72 50 72-50" fill="none" stroke="#252820" stroke-width="4" stroke-linecap="round" stroke-linejoin="round"/><text x="386" y="356" fill="#252820" font-family="Inter,Arial,sans-serif" font-size="21" font-weight="600">ACTION</text><rect x="560" y="206" width="180" height="230" rx="20" fill="#cfe9dc" stroke="#252820" stroke-width="3"/><rect x="578" y="256" width="144" height="83" rx="20" fill="#f7f4eb" stroke="#252820" stroke-width="3"/><path d="M578 256l72 50 72-50" fill="none" stroke="#252820" stroke-width="4" stroke-linecap="round" stroke-linejoin="round"/><text x="581" y="394" fill="#252820" font-family="Inter,Arial,sans-serif" font-size="21" font-weight="600">STATE</text><circle cx="800" cy="180" r="58" fill="#f2c85b" stroke="#252820" stroke-width="3"/><path d="M784 153v54M814 153v54" fill="none" stroke="#252820" stroke-width="12" stroke-linecap="round" stroke-linejoin="round"/><text x="50" y="557" fill="#252820" font-family="Inter,Arial,sans-serif" font-size="12" font-weight="600">SASWATA / NOTES FROM THE WORK</text></svg>